GRF
version=1
nRows=30
nColumns=19
inDegrees=no
endheader
time	ground_force_vx	ground_force_vy	ground_force_vz	ground_force_px	ground_force_py	ground_force_pz	ground_torque_x	ground_torque_y	ground_torque_z	1_ground_force_vx	1_ground_force_vy	1_ground_force_vz	1_ground_force_px	1_ground_force_py	1_ground_force_pz	1_ground_torque_x	1_ground_torque_y	1_ground_torque_z
      0.00000000	    -27.07360996	    228.99658263	      4.66143690	      0.17626561	     -0.00000000	     -0.05915347	     -0.00000000	     -0.36362276	      0.00000000	     45.83275754	    481.76494525	     -7.16474830	     -0.24028592	      0.00000000	     -0.02716079	      0.00000000	      2.67245594	     -0.00000000
      0.00100000	    -27.09013557	    229.06753776	      4.68859000	      0.17621734	     -0.00000000	     -0.05915623	     -0.00000000	     -0.34801378	      0.00000000	     45.77609068	    481.71499079	     -7.15696080	     -0.24027923	      0.00000000	     -0.02713872	      0.00000000	      2.67535597	     -0.00000000
      0.00200000	    -27.10622266	    229.13747690	      4.71609089	      0.17616965	     -0.00000000	     -0.05915967	     -0.00000000	     -0.33334412	      0.00000000	     45.72106165	    481.66542678	     -7.14938044	     -0.24027206	      0.00000000	     -0.02711761	      0.00000000	      2.67769952	     -0.00000000
      0.00300000	    -27.12186110	    229.20642869	      4.74389724	      0.17612258	     -0.00000000	     -0.05916390	     -0.00000000	     -0.31958665	      0.00000000	     45.66765224	    481.61626173	     -7.14200667	     -0.24026446	      0.00000000	     -0.02709756	      0.00000000	      2.67950583	     -0.00000000
      0.00400000	    -27.13704140	    229.27441973	      4.77196828	      0.17607620	     -0.00000000	     -0.05916902	     -0.00000000	     -0.30671371	      0.00000000	     45.61584106	    481.56750301	     -7.13483660	     -0.24025644	      0.00000000	     -0.02707867	      0.00000000	      2.68079361	     -0.00000000
      0.00500000	    -27.15175471	    229.34147438	      4.80026483	      0.17603055	     -0.00000000	     -0.05917511	     -0.00000000	     -0.29469716	      0.00000000	     45.56560370	    481.51915689	     -7.12786503	     -0.24024804	      0.00000000	     -0.02706102	      0.00000000	      2.68158108	     -0.00000000
      0.00600000	    -27.16599288	    229.40761465	      4.82874953	      0.17598569	     -0.00000000	     -0.05918226	     -0.00000000	     -0.28350855	      0.00000000	     45.51691292	    481.47122852	     -7.12108445	     -0.24023929	      0.00000000	     -0.02704470	      0.00000000	      2.68188597	     -0.00000000
      0.00700000	    -27.17974841	    229.47286006	      4.85738683	      0.17594167	     -0.00000000	     -0.05919055	     -0.00000000	     -0.27311917	      0.00000000	     45.46973875	    481.42372198	     -7.11448508	     -0.24023023	      0.00000000	     -0.02702978	      0.00000000	      2.68172554	     -0.00000000
      0.00800000	    -27.19301447	    229.53722755	      4.88614319	      0.17589853	     -0.00000000	     -0.05920005	     -0.00000000	     -0.26350015	      0.00000000	     45.42404876	    481.37664021	     -7.10805494	     -0.24022088	      0.00000000	     -0.02701634	      0.00000000	      2.68111664	     -0.00000000
      0.00900000	    -27.20578494	    229.60073132	      4.91498709	      0.17585633	     -0.00000000	     -0.05921082	     -0.00000000	     -0.25462260	      0.00000000	     45.37980816	    481.32998512	     -7.10177983	     -0.24021126	      0.00000000	     -0.02700443	      0.00000000	      2.68007568	     -0.00000000
      0.01000000	    -27.21805439	    229.66338280	      4.94388911	      0.17581512	     -0.00000000	     -0.05922292	     -0.00000000	     -0.24645766	      0.00000000	     45.33698007	    481.28375753	     -7.09564349	     -0.24020142	      0.00000000	     -0.02699413	      0.00000000	      2.67861873	     -0.00000000
      0.01100000	    -27.22981809	    229.72519051	      4.97282204	      0.17577493	     -0.00000000	     -0.05923641	     -0.00000000	     -0.23897663	      0.00000000	     45.29552568	    481.23795725	     -7.08962762	     -0.24019137	      0.00000000	     -0.02698547	      0.00000000	      2.67676147	     -0.00000000
      0.01200000	    -27.24107199	    229.78616005	      5.00176085	      0.17573580	     -0.00000000	     -0.05925134	     -0.00000000	     -0.23215105	      0.00000000	     45.25540447	    481.19258306	     -7.08371199	     -0.24018114	      0.00000000	     -0.02697852	      0.00000000	      2.67451932	     -0.00000000
      0.01300000	    -27.25181276	    229.84629401	      5.03068278	      0.17569779	     -0.00000000	     -0.05926773	     -0.00000000	     -0.22595278	      0.00000000	     45.21657447	    481.14763278	     -7.07787457	     -0.24017076	      0.00000000	     -0.02697331	      0.00000000	      2.67190739	     -0.00000000
      0.01400000	    -27.26203779	    229.90559199	      5.05956731	      0.17566091	     -0.00000000	     -0.05928562	     -0.00000000	     -0.22035410	      0.00000000	     45.17899240	    481.10310329	     -7.07209159	     -0.24016024	      0.00000000	     -0.02696987	      0.00000000	      2.66894056	     -0.00000000
      0.01500000	    -27.27174514	    229.96405053	      5.08839620	      0.17562521	     -0.00000000	     -0.05930503	     -0.00000000	     -0.21532778	      0.00000000	     45.14261399	    481.05899057	     -7.06633775	     -0.24014961	      0.00000000	     -0.02696824	      0.00000000	      2.66563353	     -0.00000000
      0.01600000	    -27.28093360	    230.02166320	      5.11715346	      0.17559071	     -0.00000000	     -0.05932599	     -0.00000000	     -0.21084715	      0.00000000	     45.10739412	    481.01528975	     -7.06058625	     -0.24013890	      0.00000000	     -0.02696843	      0.00000000	      2.66200082	     -0.00000000
      0.01700000	    -27.28960264	    230.07842056	      5.14582531	      0.17555745	     -0.00000000	     -0.05934850	     -0.00000000	     -0.20688616	      0.00000000	     45.07328714	    480.97199517	     -7.05480903	     -0.24012811	      0.00000000	     -0.02697046	      0.00000000	      2.65805687	     -0.00000000
      0.01800000	    -27.29775245	    230.13431026	      5.17440016	      0.17552543	     -0.00000000	     -0.05937257	     -0.00000000	     -0.20341948	      0.00000000	     45.04024702	    480.92910042	     -7.04897686	     -0.24011728	      0.00000000	     -0.02697434	      0.00000000	      2.65381599	     -0.00000000
      0.01900000	    -27.30538387	    230.18931712	      5.20286855	      0.17549469	     -0.00000000	     -0.05939819	     -0.00000000	     -0.20042249	      0.00000000	     45.00822761	    480.88659843	     -7.04305955	     -0.24010640	      0.00000000	     -0.02698007	      0.00000000	      2.64929252	     -0.00000000
      0.02000000	    -27.31249845	    230.24342322	      5.23122308	      0.17546524	     -0.00000000	     -0.05942536	     -0.00000000	     -0.19787138	      0.00000000	     44.97718289	    480.84448151	     -7.03702604	     -0.24009550	      0.00000000	     -0.02698766	      0.00000000	      2.64450076	     -0.00000000
      0.02100000	    -27.31909840	    230.29660802	      5.25945835	      0.17543709	     -0.00000000	     -0.05945406	     -0.00000000	     -0.19574312	      0.00000000	     44.94706717	    480.80274143	     -7.03084463	     -0.24008459	      0.00000000	     -0.02699709	      0.00000000	      2.63945507	     -0.00000000
      0.02200000	    -27.32518659	    230.34884855	      5.28757082	      0.17541024	     -0.00000000	     -0.05948428	     -0.00000000	     -0.19401558	      0.00000000	     44.91783530	    480.76136951	     -7.02448315	     -0.24007368	      0.00000000	     -0.02700836	      0.00000000	      2.63416991	     -0.00000000
      0.02300000	    -27.33076654	    230.40011954	      5.31555877	      0.17538470	     -0.00000000	     -0.05951598	     -0.00000000	     -0.19266748	      0.00000000	     44.88944293	    480.72035668	     -7.01790908	     -0.24006279	      0.00000000	     -0.02702144	      0.00000000	      2.62865982	     -0.00000000
      0.02400000	    -27.33584239	    230.45039362	      5.34342214	      0.17536046	     -0.00000000	     -0.05954913	     -0.00000000	     -0.19167840	      0.00000000	     44.86184664	    480.67969360	     -7.01108977	     -0.24005191	      0.00000000	     -0.02703631	      0.00000000	      2.62293952	     -0.00000000
      0.02500000	    -27.34041892	    230.49964157	      5.37116245	      0.17533753	     -0.00000000	     -0.05958369	     -0.00000000	     -0.19102883	      0.00000000	     44.83500424	    480.63937070	     -7.00399258	     -0.24004106	      0.00000000	     -0.02705295	      0.00000000	      2.61702391	     -0.00000000
      0.02600000	    -27.34450148	    230.54783252	      5.39878264	      0.17531589	     -0.00000000	     -0.05961963	     -0.00000000	     -0.19070014	      0.00000000	     44.80887487	    480.59937831	     -6.99658506	     -0.24003024	      0.00000000	     -0.02707131	      0.00000000	      2.61092808	     -0.00000000
      0.02700000	    -27.34809603	    230.59493424	      5.42628696	      0.17529552	     -0.00000000	     -0.05965689	     -0.00000000	     -0.19067455	      0.00000000	     44.78341926	    480.55970673	     -6.98883512	     -0.24001945	      0.00000000	     -0.02709138	      0.00000000	      2.60466737	     -0.00000000
      0.02800000	    -27.35120906	    230.64091338	      5.45368081	      0.17527642	     -0.00000000	     -0.05969543	     -0.00000000	     -0.19093516	      0.00000000	     44.75859986	    480.52034635	     -6.98071118	     -0.24000870	      0.00000000	     -0.02711310	      0.00000000	      2.59825735	     -0.00000000
      0.02900000	    -27.35384763	    230.68573580	      5.48097062	      0.17525855	     -0.00000000	     -0.05973518	     -0.00000000	     -0.19146587	      0.00000000	     44.73438099	    480.48128770	     -6.97218233	     -0.23999800	      0.00000000	     -0.02713644	      0.00000000	      2.59171387	     -0.00000000
